<mxfile host="app.diagrams.net" modified="2022-04-12T18:04:47.118Z" agent="5.0 (Macintosh; Intel Mac OS X 10_15_7) AppleWebKit/605.1.15 (KHTML, like Gecko) Version/15.3 Safari/605.1.15" etag="OK7SQQoDs9nct9M43z7B" version="17.4.3" type="github">
  <diagram id="KI8JMS-GFG4T47JoEaQw" name="Page-1">
    <mxGraphModel dx="1091" dy="770" grid="0" gridSize="10" guides="1" tooltips="1" connect="1" arrows="1" fold="1" page="1" pageScale="1" pageWidth="827" pageHeight="1169" math="0" shadow="0">
      <root>
        <mxCell id="0" />
        <mxCell id="1" parent="0" />
        <mxCell id="R-LDMqlp3qF_4xycoeFP-1" value="" style="rounded=0;whiteSpace=wrap;html=1;fillColor=none;strokeColor=#6c8ebf;gradientColor=#7ea6e0;" vertex="1" parent="1">
          <mxGeometry x="39" y="146" width="120" height="60" as="geometry" />
        </mxCell>
        <mxCell id="R-LDMqlp3qF_4xycoeFP-2" value="" style="endArrow=blockThin;html=1;rounded=0;endFill=1;fillColor=#dae8fc;strokeColor=#6c8ebf;gradientColor=#7ea6e0;" edge="1" parent="1">
          <mxGeometry width="50" height="50" relative="1" as="geometry">
            <mxPoint x="39" y="221" as="sourcePoint" />
            <mxPoint x="160" y="220" as="targetPoint" />
          </mxGeometry>
        </mxCell>
        <mxCell id="R-LDMqlp3qF_4xycoeFP-3" value="" style="endArrow=diamondThin;html=1;rounded=0;endFill=1;fillColor=#dae8fc;strokeColor=#6c8ebf;gradientColor=#7ea6e0;" edge="1" parent="1">
          <mxGeometry width="50" height="50" relative="1" as="geometry">
            <mxPoint x="39" y="237.9999999999999" as="sourcePoint" />
            <mxPoint x="159.9999999999999" y="237" as="targetPoint" />
          </mxGeometry>
        </mxCell>
        <mxCell id="R-LDMqlp3qF_4xycoeFP-5" value="" style="endArrow=diamondThin;html=1;rounded=0;endFill=0;fillColor=#dae8fc;strokeColor=#6c8ebf;gradientColor=#7ea6e0;" edge="1" parent="1">
          <mxGeometry width="50" height="50" relative="1" as="geometry">
            <mxPoint x="39" y="256.9999999999999" as="sourcePoint" />
            <mxPoint x="159.9999999999999" y="256" as="targetPoint" />
          </mxGeometry>
        </mxCell>
        <mxCell id="R-LDMqlp3qF_4xycoeFP-6" value="" style="endArrow=block;html=1;rounded=0;endFill=0;fillColor=#dae8fc;strokeColor=#6c8ebf;gradientColor=#7ea6e0;" edge="1" parent="1">
          <mxGeometry width="50" height="50" relative="1" as="geometry">
            <mxPoint x="39" y="275" as="sourcePoint" />
            <mxPoint x="159.9999999999999" y="273.9999999999999" as="targetPoint" />
          </mxGeometry>
        </mxCell>
        <mxCell id="R-LDMqlp3qF_4xycoeFP-7" value="" style="endArrow=blockThin;html=1;rounded=0;endFill=1;dashed=1;fillColor=#dae8fc;strokeColor=#6c8ebf;gradientColor=#7ea6e0;" edge="1" parent="1">
          <mxGeometry width="50" height="50" relative="1" as="geometry">
            <mxPoint x="39" y="297.9999999999999" as="sourcePoint" />
            <mxPoint x="159.9999999999999" y="297" as="targetPoint" />
          </mxGeometry>
        </mxCell>
        <mxCell id="R-LDMqlp3qF_4xycoeFP-8" value="" style="endArrow=diamondThin;html=1;rounded=0;endFill=1;dashed=1;fillColor=#dae8fc;strokeColor=#6c8ebf;gradientColor=#7ea6e0;" edge="1" parent="1">
          <mxGeometry width="50" height="50" relative="1" as="geometry">
            <mxPoint x="39" y="314.9999999999999" as="sourcePoint" />
            <mxPoint x="159.9999999999999" y="314" as="targetPoint" />
          </mxGeometry>
        </mxCell>
        <mxCell id="R-LDMqlp3qF_4xycoeFP-9" value="" style="endArrow=diamondThin;html=1;rounded=0;endFill=0;dashed=1;fillColor=#dae8fc;strokeColor=#6c8ebf;gradientColor=#7ea6e0;" edge="1" parent="1">
          <mxGeometry width="50" height="50" relative="1" as="geometry">
            <mxPoint x="39" y="334" as="sourcePoint" />
            <mxPoint x="159.9999999999999" y="332.9999999999999" as="targetPoint" />
          </mxGeometry>
        </mxCell>
        <mxCell id="R-LDMqlp3qF_4xycoeFP-10" value="" style="endArrow=block;html=1;rounded=0;endFill=0;dashed=1;fillColor=#dae8fc;strokeColor=#6c8ebf;gradientColor=#7ea6e0;" edge="1" parent="1">
          <mxGeometry width="50" height="50" relative="1" as="geometry">
            <mxPoint x="39" y="352" as="sourcePoint" />
            <mxPoint x="159.9999999999999" y="350.9999999999999" as="targetPoint" />
          </mxGeometry>
        </mxCell>
        <mxCell id="R-LDMqlp3qF_4xycoeFP-11" value="" style="rounded=0;whiteSpace=wrap;html=1;fillColor=none;strokeColor=#b85450;gradientColor=#ea6b66;" vertex="1" parent="1">
          <mxGeometry x="38" y="390" width="120" height="60" as="geometry" />
        </mxCell>
        <mxCell id="R-LDMqlp3qF_4xycoeFP-12" value="" style="endArrow=blockThin;html=1;rounded=0;endFill=1;fillColor=#f8cecc;strokeColor=#b85450;gradientColor=#ea6b66;" edge="1" parent="1">
          <mxGeometry width="50" height="50" relative="1" as="geometry">
            <mxPoint x="38" y="464.9999999999999" as="sourcePoint" />
            <mxPoint x="158.9999999999999" y="464" as="targetPoint" />
          </mxGeometry>
        </mxCell>
        <mxCell id="R-LDMqlp3qF_4xycoeFP-13" value="" style="endArrow=diamondThin;html=1;rounded=0;endFill=1;fillColor=#f8cecc;strokeColor=#b85450;gradientColor=#ea6b66;" edge="1" parent="1">
          <mxGeometry width="50" height="50" relative="1" as="geometry">
            <mxPoint x="38" y="481.9999999999999" as="sourcePoint" />
            <mxPoint x="158.9999999999999" y="481" as="targetPoint" />
          </mxGeometry>
        </mxCell>
        <mxCell id="R-LDMqlp3qF_4xycoeFP-14" value="" style="endArrow=diamondThin;html=1;rounded=0;endFill=0;fillColor=#f8cecc;strokeColor=#b85450;gradientColor=#ea6b66;" edge="1" parent="1">
          <mxGeometry width="50" height="50" relative="1" as="geometry">
            <mxPoint x="38" y="501" as="sourcePoint" />
            <mxPoint x="158.9999999999999" y="499.9999999999999" as="targetPoint" />
          </mxGeometry>
        </mxCell>
        <mxCell id="R-LDMqlp3qF_4xycoeFP-15" value="" style="endArrow=block;html=1;rounded=0;endFill=0;fillColor=#f8cecc;strokeColor=#b85450;gradientColor=#ea6b66;" edge="1" parent="1">
          <mxGeometry width="50" height="50" relative="1" as="geometry">
            <mxPoint x="38" y="519" as="sourcePoint" />
            <mxPoint x="158.9999999999999" y="517.9999999999999" as="targetPoint" />
          </mxGeometry>
        </mxCell>
        <mxCell id="R-LDMqlp3qF_4xycoeFP-16" value="" style="endArrow=blockThin;html=1;rounded=0;endFill=1;dashed=1;fillColor=#f8cecc;strokeColor=#b85450;gradientColor=#ea6b66;" edge="1" parent="1">
          <mxGeometry width="50" height="50" relative="1" as="geometry">
            <mxPoint x="38" y="541.9999999999999" as="sourcePoint" />
            <mxPoint x="158.9999999999999" y="541" as="targetPoint" />
          </mxGeometry>
        </mxCell>
        <mxCell id="R-LDMqlp3qF_4xycoeFP-17" value="" style="endArrow=diamondThin;html=1;rounded=0;endFill=1;dashed=1;fillColor=#f8cecc;strokeColor=#b85450;gradientColor=#ea6b66;" edge="1" parent="1">
          <mxGeometry width="50" height="50" relative="1" as="geometry">
            <mxPoint x="38" y="558.9999999999999" as="sourcePoint" />
            <mxPoint x="158.9999999999999" y="558" as="targetPoint" />
          </mxGeometry>
        </mxCell>
        <mxCell id="R-LDMqlp3qF_4xycoeFP-18" value="" style="endArrow=diamondThin;html=1;rounded=0;endFill=0;dashed=1;fillColor=#f8cecc;strokeColor=#b85450;gradientColor=#ea6b66;" edge="1" parent="1">
          <mxGeometry width="50" height="50" relative="1" as="geometry">
            <mxPoint x="38" y="578" as="sourcePoint" />
            <mxPoint x="158.9999999999999" y="576.9999999999999" as="targetPoint" />
          </mxGeometry>
        </mxCell>
        <mxCell id="R-LDMqlp3qF_4xycoeFP-19" value="" style="endArrow=block;html=1;rounded=0;endFill=0;dashed=1;fillColor=#f8cecc;strokeColor=#b85450;gradientColor=#ea6b66;" edge="1" parent="1">
          <mxGeometry width="50" height="50" relative="1" as="geometry">
            <mxPoint x="38" y="596" as="sourcePoint" />
            <mxPoint x="158.9999999999999" y="594.9999999999999" as="targetPoint" />
          </mxGeometry>
        </mxCell>
        <mxCell id="R-LDMqlp3qF_4xycoeFP-20" value="" style="rounded=0;whiteSpace=wrap;html=1;fillColor=none;strokeColor=#82b366;gradientColor=#97d077;" vertex="1" parent="1">
          <mxGeometry x="39" y="627" width="120" height="60" as="geometry" />
        </mxCell>
        <mxCell id="R-LDMqlp3qF_4xycoeFP-21" value="" style="endArrow=blockThin;html=1;rounded=0;endFill=1;fillColor=#d5e8d4;strokeColor=#82b366;gradientColor=#97d077;" edge="1" parent="1">
          <mxGeometry width="50" height="50" relative="1" as="geometry">
            <mxPoint x="39" y="701.9999999999999" as="sourcePoint" />
            <mxPoint x="159.9999999999999" y="701" as="targetPoint" />
          </mxGeometry>
        </mxCell>
        <mxCell id="R-LDMqlp3qF_4xycoeFP-22" value="" style="endArrow=diamondThin;html=1;rounded=0;endFill=1;fillColor=#d5e8d4;strokeColor=#82b366;gradientColor=#97d077;" edge="1" parent="1">
          <mxGeometry width="50" height="50" relative="1" as="geometry">
            <mxPoint x="39" y="718.9999999999999" as="sourcePoint" />
            <mxPoint x="159.9999999999999" y="718" as="targetPoint" />
          </mxGeometry>
        </mxCell>
        <mxCell id="R-LDMqlp3qF_4xycoeFP-23" value="" style="endArrow=diamondThin;html=1;rounded=0;endFill=0;fillColor=#d5e8d4;strokeColor=#82b366;gradientColor=#97d077;" edge="1" parent="1">
          <mxGeometry width="50" height="50" relative="1" as="geometry">
            <mxPoint x="39" y="738" as="sourcePoint" />
            <mxPoint x="159.9999999999999" y="736.9999999999999" as="targetPoint" />
          </mxGeometry>
        </mxCell>
        <mxCell id="R-LDMqlp3qF_4xycoeFP-24" value="" style="endArrow=block;html=1;rounded=0;endFill=0;fillColor=#d5e8d4;strokeColor=#82b366;gradientColor=#97d077;" edge="1" parent="1">
          <mxGeometry width="50" height="50" relative="1" as="geometry">
            <mxPoint x="39" y="756" as="sourcePoint" />
            <mxPoint x="159.9999999999999" y="754.9999999999999" as="targetPoint" />
          </mxGeometry>
        </mxCell>
        <mxCell id="R-LDMqlp3qF_4xycoeFP-25" value="" style="endArrow=blockThin;html=1;rounded=0;endFill=1;dashed=1;fillColor=#d5e8d4;strokeColor=#82b366;gradientColor=#97d077;" edge="1" parent="1">
          <mxGeometry width="50" height="50" relative="1" as="geometry">
            <mxPoint x="39" y="778.9999999999999" as="sourcePoint" />
            <mxPoint x="159.9999999999999" y="778" as="targetPoint" />
          </mxGeometry>
        </mxCell>
        <mxCell id="R-LDMqlp3qF_4xycoeFP-26" value="" style="endArrow=diamondThin;html=1;rounded=0;endFill=1;dashed=1;fillColor=#d5e8d4;strokeColor=#82b366;gradientColor=#97d077;" edge="1" parent="1">
          <mxGeometry width="50" height="50" relative="1" as="geometry">
            <mxPoint x="39" y="795.9999999999999" as="sourcePoint" />
            <mxPoint x="159.9999999999999" y="795" as="targetPoint" />
          </mxGeometry>
        </mxCell>
        <mxCell id="R-LDMqlp3qF_4xycoeFP-27" value="" style="endArrow=diamondThin;html=1;rounded=0;endFill=0;dashed=1;fillColor=#d5e8d4;strokeColor=#82b366;gradientColor=#97d077;" edge="1" parent="1">
          <mxGeometry width="50" height="50" relative="1" as="geometry">
            <mxPoint x="39" y="815" as="sourcePoint" />
            <mxPoint x="159.9999999999999" y="813.9999999999999" as="targetPoint" />
          </mxGeometry>
        </mxCell>
        <mxCell id="R-LDMqlp3qF_4xycoeFP-28" value="" style="endArrow=block;html=1;rounded=0;endFill=0;dashed=1;fillColor=#d5e8d4;strokeColor=#82b366;gradientColor=#97d077;" edge="1" parent="1">
          <mxGeometry width="50" height="50" relative="1" as="geometry">
            <mxPoint x="39" y="833" as="sourcePoint" />
            <mxPoint x="159.9999999999999" y="831.9999999999999" as="targetPoint" />
          </mxGeometry>
        </mxCell>
        <mxCell id="R-LDMqlp3qF_4xycoeFP-29" value="" style="rounded=0;whiteSpace=wrap;html=1;fillColor=none;strokeColor=#d6b656;gradientColor=#ffd966;" vertex="1" parent="1">
          <mxGeometry x="37" y="878" width="120" height="60" as="geometry" />
        </mxCell>
        <mxCell id="R-LDMqlp3qF_4xycoeFP-30" value="" style="endArrow=blockThin;html=1;rounded=0;endFill=1;fillColor=#fff2cc;strokeColor=#d6b656;gradientColor=#ffd966;" edge="1" parent="1">
          <mxGeometry width="50" height="50" relative="1" as="geometry">
            <mxPoint x="37" y="953" as="sourcePoint" />
            <mxPoint x="157.9999999999999" y="952" as="targetPoint" />
          </mxGeometry>
        </mxCell>
        <mxCell id="R-LDMqlp3qF_4xycoeFP-31" value="" style="endArrow=diamondThin;html=1;rounded=0;endFill=1;fillColor=#fff2cc;strokeColor=#d6b656;gradientColor=#ffd966;" edge="1" parent="1">
          <mxGeometry width="50" height="50" relative="1" as="geometry">
            <mxPoint x="37" y="970" as="sourcePoint" />
            <mxPoint x="157.9999999999999" y="969" as="targetPoint" />
          </mxGeometry>
        </mxCell>
        <mxCell id="R-LDMqlp3qF_4xycoeFP-32" value="" style="endArrow=diamondThin;html=1;rounded=0;endFill=0;fillColor=#fff2cc;strokeColor=#d6b656;gradientColor=#ffd966;" edge="1" parent="1">
          <mxGeometry width="50" height="50" relative="1" as="geometry">
            <mxPoint x="37" y="989" as="sourcePoint" />
            <mxPoint x="157.9999999999999" y="988" as="targetPoint" />
          </mxGeometry>
        </mxCell>
        <mxCell id="R-LDMqlp3qF_4xycoeFP-33" value="" style="endArrow=block;html=1;rounded=0;endFill=0;fillColor=#fff2cc;strokeColor=#d6b656;gradientColor=#ffd966;" edge="1" parent="1">
          <mxGeometry width="50" height="50" relative="1" as="geometry">
            <mxPoint x="37" y="1007" as="sourcePoint" />
            <mxPoint x="157.9999999999999" y="1006" as="targetPoint" />
          </mxGeometry>
        </mxCell>
        <mxCell id="R-LDMqlp3qF_4xycoeFP-34" value="" style="endArrow=blockThin;html=1;rounded=0;endFill=1;dashed=1;fillColor=#fff2cc;strokeColor=#d6b656;gradientColor=#ffd966;" edge="1" parent="1">
          <mxGeometry width="50" height="50" relative="1" as="geometry">
            <mxPoint x="37" y="1030" as="sourcePoint" />
            <mxPoint x="157.9999999999999" y="1029" as="targetPoint" />
          </mxGeometry>
        </mxCell>
        <mxCell id="R-LDMqlp3qF_4xycoeFP-35" value="" style="endArrow=diamondThin;html=1;rounded=0;endFill=1;dashed=1;fillColor=#fff2cc;strokeColor=#d6b656;gradientColor=#ffd966;" edge="1" parent="1">
          <mxGeometry width="50" height="50" relative="1" as="geometry">
            <mxPoint x="37" y="1047" as="sourcePoint" />
            <mxPoint x="157.9999999999999" y="1046" as="targetPoint" />
          </mxGeometry>
        </mxCell>
        <mxCell id="R-LDMqlp3qF_4xycoeFP-36" value="" style="endArrow=diamondThin;html=1;rounded=0;endFill=0;dashed=1;fillColor=#fff2cc;strokeColor=#d6b656;gradientColor=#ffd966;" edge="1" parent="1">
          <mxGeometry width="50" height="50" relative="1" as="geometry">
            <mxPoint x="37" y="1066" as="sourcePoint" />
            <mxPoint x="157.9999999999999" y="1065" as="targetPoint" />
          </mxGeometry>
        </mxCell>
        <mxCell id="R-LDMqlp3qF_4xycoeFP-37" value="" style="endArrow=block;html=1;rounded=0;endFill=0;dashed=1;fillColor=#fff2cc;strokeColor=#d6b656;gradientColor=#ffd966;" edge="1" parent="1">
          <mxGeometry width="50" height="50" relative="1" as="geometry">
            <mxPoint x="37" y="1084" as="sourcePoint" />
            <mxPoint x="157.9999999999999" y="1083" as="targetPoint" />
          </mxGeometry>
        </mxCell>
      </root>
    </mxGraphModel>
  </diagram>
</mxfile>
